<svg width="22" height="17" viewBox="0 0 22 17" fill="none" xmlns="http://www.w3.org/2000/svg">
<g clip-path="url(#clip0_39_241)">
<path d="M8.25 7.79167H6.41667V9.20833H8.25V7.79167ZM11.9167 7.79167H10.0833V9.20833H11.9167V7.79167ZM15.5833 7.79167H13.75V9.20833H15.5833V7.79167ZM17.4167 2.83333H16.5V1.41667H14.6667V2.83333H7.33333V1.41667H5.5V2.83333H4.58333C3.56583 2.83333 2.75917 3.47083 2.75917 4.25L2.75 14.1667C2.75 14.9458 3.56583 15.5833 4.58333 15.5833H17.4167C18.425 15.5833 19.25 14.9458 19.25 14.1667V4.25C19.25 3.47083 18.425 2.83333 17.4167 2.83333ZM17.4167 14.1667H4.58333V6.375H17.4167V14.1667Z" fill="#006633"/>
</g>
<defs>
<clipPath id="clip0_39_241">
<rect width="22" height="17" fill="white"/>
</clipPath>
</defs>
</svg>
