<svg width="22" height="17" viewBox="0 0 22 17" fill="none" xmlns="http://www.w3.org/2000/svg">
<g clip-path="url(#clip0_102_23)">
<path d="M8.25 7.79169H6.41667V9.20835H8.25V7.79169ZM11.9167 7.79169H10.0833V9.20835H11.9167V7.79169ZM15.5833 7.79169H13.75V9.20835H15.5833V7.79169ZM17.4167 2.83335H16.5V1.41669H14.6667V2.83335H7.33333V1.41669H5.5V2.83335H4.58333C3.56583 2.83335 2.75917 3.47085 2.75917 4.25002L2.75 14.1667C2.75 14.9459 3.56583 15.5834 4.58333 15.5834H17.4167C18.425 15.5834 19.25 14.9459 19.25 14.1667V4.25002C19.25 3.47085 18.425 2.83335 17.4167 2.83335ZM17.4167 14.1667H4.58333V6.37502H17.4167V14.1667Z" fill="#006633"/>
</g>
<defs>
<clipPath id="clip0_102_23">
<rect width="22" height="17" fill="white"/>
</clipPath>
</defs>
</svg>
